#!OML:ASF G:\JayActor3\Patient Classification 1\Patient 1\Session 5\male.ASF
:FULLY-SPECIFIED
:DEGREES
559
root 7.21394 16.5571 -6.07996 122.323 -80.0237 -122.299
lowerback -3.47551 0.755564 10.6361
upperback 0.974312 0.440377 1.07709
thorax 3.05986 0.387257 -4.81315
lowerneck -5.47505 0.168384 2.1007
upperneck 2.61959 -0.024179 1.99426
head 1.74405 0.0506547 0.267417
rclavicle 1.22897e-014 8.15017e-015
rhumerus -32.2473 -5.90254 -87.3327
rradius 27.4674
rwrist 3.56803
rhand -19.0924 -8.78693
rfingers 7.12502
rthumb 7.21595 -38.6439
lclavicle 1.22897e-014 8.15017e-015
lhumerus -35.9151 7.68963 81.5719
lradius 23.91
lwrist 15.2438
lhand -16.9903 15.959
lfingers 7.12502
lthumb 9.24468 45.7363
rfemur 20.1274 -0.522564 32.7778
rtibia 17.4726
rfoot -6.95052 -2.51844
rtoes -3.83059
lfemur -26.7468 11.2714 -16.897
ltibia 22.7231
lfoot -12.5852 6.06906
ltoes -16.0628
560
root 7.04195 16.5701 -6.07542 123.845 -80.4109 -124.007
lowerback -3.42378 0.738035 10.1539
upperback 0.980966 0.457294 0.905194
thorax 3.0344 0.390538 -4.72364
lowerneck -5.4734 0.153702 2.06945
upperneck 2.66499 -0.0460983 2.07064
head 1.75862 0.0416676 0.296034
rclavicle -9.13264e-015 9.74045e-015
rhumerus -32.4008 -6.3848 -87.1727
rradius 27.0179
rwrist 3.97872
rhand -19.175 -8.83067
rfingers 7.12502
rthumb 7.13621 -38.6904
lclavicle -9.13264e-015 9.74045e-015
lhumerus -35.9061 7.9781 81.3364
lradius 23.5203
lwrist 15.0202
lhand -17.0906 16.1058
lfingers 7.12502
lthumb 9.14788 45.8874
rfemur 19.8513 -0.649255 31.997
rtibia 19.0878
rfoot -5.86031 -2.53694
rtoes -3.12337
lfemur -26.1871 11.7355 -17.419
ltibia 23.0812
lfoot -12.1216 5.29852
ltoes -15.5873
561
root 6.87158 16.5826 -6.0696 125.285 -80.8052 -125.646
lowerback -3.3605 0.71606 9.70873
upperback 0.995495 0.46655 0.723321
thorax 3.01017 0.390943 -4.66519
lowerneck -5.51015 0.135463 2.04319
upperneck 2.75236 -0.0750299 2.13945
head 1.79377 0.0299656 0.321389
rclavicle 8.44058e-016 -1.35174e-014
rhumerus -32.5535 -6.88968 -87.0083
rradius 26.5646
rwrist 4.37918
rhand -19.2349 -8.87659
rfingers 7.12502
rthumb 7.07841 -38.7382
lclavicle 8.44058e-016 -1.35174e-014
lhumerus -35.867 8.26913 81.0881
lradius 23.1255
lwrist 14.7737
lhand -17.176 16.2609
lfingers 7.12502
lthumb 9.06549 46.046
rfemur 19.4064 -0.883008 31.1788
rtibia 20.9702
rfoot -4.67289 -2.64016
rtoes -2.25511
lfemur -25.5624 12.0858 -17.9115
ltibia 23.3912
lfoot -11.683 4.68941
ltoes -15.1753
562
root 6.70232 16.5949 -6.06248 126.647 -81.1763 -127.206
lowerback -3.30042 0.698098 9.32493
upperback 1.01342 0.476325 0.540611
thorax 2.99239 0.392803 -4.6414
lowerneck -5.57738 0.111856 2.02691
upperneck 2.87798 -0.113178 2.19444
head 1.84693 0.0142926 0.340588
rclavicle -1.43498e-014 1.07344e-014
rhumerus -32.7184 -7.39103 -86.8433
rradius 26.1412
rwrist 4.73783
rhand -19.2489 -8.91739
rfingers 7.12502
rthumb 7.06485 -38.7795
lclavicle -1.43498e-014 1.07344e-014
lhumerus -35.8124 8.54785 80.8363
lradius 22.7521
lwrist 14.513
lhand -17.2201 16.4325
lfingers 7.12502
lthumb 9.02301 46.2196
rfemur 18.8092 -1.20097 30.3489
rtibia 23.0646
rfoot -3.36018 -2.85274
rtoes -1.22444
lfemur -24.8997 12.2987 -18.3419
ltibia 23.6641
lfoot -11.2888 4.28277
ltoes -14.765
563
root 6.53393 16.6074 -6.05404 127.961 -81.5145 -128.703
lowerback -3.25173 0.687913 9.00033
upperback 1.02814 0.491193 0.364426
thorax 2.97931 0.397938 -4.64321
lowerneck -5.6744 0.0841691 2.01641
upperneck 3.04446 -0.158528 2.23485
head 1.91897 -0.00435082 0.354143
rclavicle 4.16205e-016 -1.19271e-014
rhumerus -32.9073 -7.87185 -86.6729
rradius 25.7761
rwrist 5.03678
rhand -19.1919 -8.95307
rfingers 7.12502
rthumb 7.11988 -38.8133
lclavicle 4.16205e-016 -1.19271e-014
lhumerus -35.7513 8.81497 80.5908
lradius 22.4119
lwrist 14.2498
lhand -17.2184 16.601
lfingers 7.12502
lthumb 9.02456 46.388
rfemur 18.0774 -1.57773 29.518
rtibia 25.3223
rfoot -1.92663 -3.17687
rtoes -0.0919523
lfemur -24.2276 12.4162 -18.7188
ltibia 23.9038
lfoot -10.9416 4.0101
ltoes -14.2891
564
root 6.36673 16.6206 -6.04476 129.306 -81.8225 -130.21
lowerback -3.21026 0.682884 8.70517
upperback 1.03307 0.509896 0.201539
thorax 2.96096 0.404527 -4.64713
lowerneck -5.78434 0.0560056 2.0119
upperneck 3.23803 -0.205251 2.25747
head 2.00243 -0.0234592 0.361095
rclavicle 1.12344e-014 -7.95139e-015
rhumerus -33.1249 -8.29297 -86.5022
rradius 25.485
rwrist 5.25652
rhand -19.0536 -8.98134
rfingers 7.12502
rthumb 7.25341 -38.837
lclavicle 1.12344e-014 -7.95139e-015
lhumerus -35.6981 9.08372 80.3562
lradius 22.1143
lwrist 13.9875
lhand -17.1699 16.7411
lfingers 7.12502
lthumb 9.07142 46.526
rfemur 17.2275 -1.96997 28.696
rtibia 27.7046
rfoot -0.385443 -3.61901
rtoes 1.20841
lfemur -23.5592 12.5012 -19.0685
ltibia 24.1046
lfoot -10.6324 3.76699
ltoes -13.681
565
root 6.20108 16.6344 -6.03512 130.749 -82.1098 -131.797
lowerback -3.16437 0.678636 8.40706
upperback 1.02504 0.529337 0.0575296
thorax 2.92645 0.40993 -4.62944
lowerneck -5.90061 0.0302971 2.00717
upperneck 3.45175 -0.248466 2.26205
head 2.09395 -0.0408621 0.362525
rclavicle 5.34855e-015 7.95139e-016
rhumerus -33.3656 -8.61872 -86.3346
rradius 25.2728
rwrist 5.37054
rhand -18.8345 -8.98531
rfingers 7.12502
rthumb 7.4649 -38.8336
lclavicle 5.34855e-015 7.95139e-016
lhumerus -35.6684 9.33904 80.1533
lradius 21.8853
lwrist 13.7578
lhand -17.0622 16.8632
lfingers 7.12502
lthumb 9.17537 46.6436
rfemur 16.2791 -2.34504 27.8873
rtibia 30.1788
rfoot 1.2318 -4.16291
rtoes 2.66312
lfemur -22.8958 12.614 -19.4191
ltibia 24.2627
lfoot -10.3668 3.46728
ltoes -12.9245
566
root 6.03738 16.6491 -6.02572 132.293 -82.3797 -133.468
lowerback -3.1017 0.669798 8.08929
upperback 1.00144 0.544195 -0.064384
thorax 2.86504 0.410795 -4.57781
lowerneck -6.00601 0.0106695 2.00218
upperneck 3.66919 -0.282433 2.25111
head 2.18502 -0.0540675 0.35936
rclavicle -7.72775e-015 -8.34896e-015
rhumerus -33.6289 -8.83821 -86.1747
rradius 25.1401
rwrist 5.39302
rhand -18.5495 -8.96613
rfingers 7.12502
rthumb 7.73994 -38.8045
lclavicle -7.72775e-015 -8.34896e-015
lhumerus -35.6779 9.56109 79.9934
lradius 21.7463
lwrist 13.5869
lhand -16.9081 16.9462
lfingers 7.12502
lthumb 9.32402 46.72
rfemur 15.2491 -2.67307 27.1119
rtibia 32.718
rfoot 2.88199 -4.80958
rtoes 4.12846
lfemur -22.228 12.7781 -19.7751
ltibia 24.367
lfoot -10.147 3.09689
ltoes -12.0482
567
root 5.87591 16.6644 -6.01736 133.902 -82.6286 -135.197
lowerback -3.01161 0.655884 7.74751
upperback 0.965332 0.554421 -0.161606
thorax 2.77393 0.407181 -4.48717
lowerneck -6.09687 -0.0045 1.99126
upperneck 3.88142 -0.308917 2.23321
head 2.27201 -0.0640272 0.355196
rclavicle 3.47873e-015 -5.96354e-015
rhumerus -33.902 -8.94028 -86.0342
rradius 25.0785
rwrist 5.31668
rhand -18.2447 -8.93174
rfingers 7.12502
rthumb 8.03418 -38.759
lclavicle 3.47873e-015 -5.96354e-015
lhumerus -35.7302 9.70716 79.8971
lradius 21.7177
lwrist 13.5154
lhand -16.7202 17.0001
lfingers 7.12502
lthumb 9.50528 46.7657
rfemur 14.1549 -2.93135 26.3971
rtibia 35.2948
rfoot 4.53804 -5.55088
rtoes 5.56242
lfemur -21.5435 12.9843 -20.1214
ltibia 24.4113
lfoot -9.97575 2.70048
ltoes -11.1186
568
root 5.71666 16.6804 -6.01036 135.747 -82.8814 -137.152
lowerback -2.90241 0.635194 7.34876
upperback 0.922054 0.558178 -0.246023
thorax 2.66291 0.398586 -4.35142
lowerneck -6.18172 -0.0154213 1.97339
upperneck 4.08461 -0.328684 2.2158
head 2.35521 -0.0709786 0.352566
rclavicle 5.31749e-015 1.59028e-015
rhumerus -34.1685 -8.94319 -85.9174
rradius 25.0775
rwrist 5.18106
rhand -17.941 -8.89955
rfingers 7.12502
rthumb 8.32726 -38.7154
lclavicle 5.31749e-015 1.59028e-015
lhumerus -35.817 9.74244 79.878
lradius 21.8103
lwrist 13.5842
lhand -16.5218 17.0352
lfingers 7.12502
lthumb 9.69675 46.792
rfemur 13.0008 -3.10936 25.718
rtibia 37.885
rfoot 6.19509 -6.38622
rtoes 6.96286
lfemur -20.836 13.1947 -20.485
ltibia 24.3874
lfoot -9.85477 2.34876
ltoes -10.2054
569
root 5.55969 16.6967 -6.0052 137.801 -83.1238 -139.307
lowerback -2.78544 0.612015 6.9078
upperback 0.880054 0.558781 -0.317137
thorax 2.54796 0.387909 -4.17807
lowerneck -6.25784 -0.0229391 1.95126
upperneck 4.26287 -0.342589 2.19909
head 2.42876 -0.0755588 0.351024
rclavicle -2.29845e-015 3.97569e-016
rhumerus -34.4058 -8.86044 -85.8305
rradius 25.1202
rwrist 5.00327
rhand -17.675 -8.87338
rfingers 7.12502
rthumb 8.584 -38.6789
lclavicle -2.29845e-015 3.97569e-016
lhumerus -35.9041 9.70733 79.915
lradius 21.9819
lwrist 13.7455
lhand -16.3277 17.0343
lfingers 7.12502
lthumb 9.88406 46.7823
rfemur 11.7902 -3.19264 25.1023
rtibia 40.4642
rfoot 7.85667 -7.3259
rtoes 8.38703
lfemur -20.1046 13.3617 -20.8387
ltibia 24.2976
lfoot -9.78658 2.10562
ltoes -9.37323
